# xmcd CD database file
#
# Track frame offsets:
#	150
#	22090
#	44157
#	64725
#	89692
#	113685
#	134855
#	157087
#	183259
#	204287
#	226952
#	248272
#	270015
#	290440
#	310790
#
# Disc length: 4428 seconds
#
# Revision: 2
# Processed by: cddbd v1.5.1PL0 Copyright (c) Steve Scherf et al.
# Submitted via: CDex 1.51
#
DISCID=d1114a0f
DTITLE=松田聖子 - SEIKO’96〜’98
DYEAR=1998
DGENRE=JPop
TTITLE0=Touch the Love
TTITLE1=明日へと駆け出してゆこう
TTITLE2=Crazy Shopper
TTITLE3=あなたに逢いたくて 〜Missing You〜
TTITLE4=もし、もう一度戻れるなら
TTITLE5=さよならの瞬間
TTITLE6=波乱万丈
TTITLE7=私だけの天使 〜Angel〜
TTITLE8=あなたのその胸に
TTITLE9=切なすぎる心
TTITLE10=Gone with the rain
TTITLE11=恋する想い 〜Fall in love〜
TTITLE12=Forever
TTITLE13=風に吹かれて
TTITLE14=Dear Father
EXTD=YEAR: 1998
EXTT0=
EXTT1=
EXTT2=
EXTT3=
EXTT4=
EXTT5=
EXTT6=
EXTT7=
EXTT8=
EXTT9=
EXTT10=
EXTT11=
EXTT12=
EXTT13=
EXTT14=
PLAYORDER=
